<mxfile host="app.diagrams.net" modified="2023-11-07T00:59:19.485Z" agent="Mozilla/5.0 (X11; Linux x86_64; rv:109.0) Gecko/20100101 Firefox/119.0" etag="hCfK1gPyIw_tkgsXod8q" version="22.0.8" type="device">
  <diagram name="Page-1" id="649wm21SQjTjbUOkvSfN">
    <mxGraphModel dx="819" dy="1543" grid="1" gridSize="10" guides="1" tooltips="1" connect="1" arrows="1" fold="1" page="1" pageScale="1" pageWidth="850" pageHeight="1100" math="0" shadow="0">
      <root>
        <mxCell id="0" />
        <mxCell id="1" parent="0" />
        <mxCell id="1xQ1ox92cC6e60sL-DOJ-3" value="" style="ellipse;whiteSpace=wrap;html=1;aspect=fixed;fillColor=#0d0d0d;" parent="1" vertex="1">
          <mxGeometry x="20" y="220" width="37" height="40" as="geometry" />
        </mxCell>
        <mxCell id="1xQ1ox92cC6e60sL-DOJ-4" value="Initial psuedostate" style="shape=note;whiteSpace=wrap;html=1;backgroundOutline=1;darkOpacity=0.05;" parent="1" vertex="1">
          <mxGeometry y="340" width="87" height="60" as="geometry" />
        </mxCell>
        <mxCell id="1xQ1ox92cC6e60sL-DOJ-5" value="" style="endArrow=none;dashed=1;html=1;rounded=0;entryX=0.5;entryY=1;entryDx=0;entryDy=0;strokeColor=#000000;" parent="1" target="1xQ1ox92cC6e60sL-DOJ-3" edge="1">
          <mxGeometry width="50" height="50" relative="1" as="geometry">
            <mxPoint x="40" y="340" as="sourcePoint" />
            <mxPoint x="80" y="290" as="targetPoint" />
          </mxGeometry>
        </mxCell>
        <mxCell id="1xQ1ox92cC6e60sL-DOJ-6" value="" style="endArrow=classic;html=1;rounded=0;" parent="1" edge="1">
          <mxGeometry width="50" height="50" relative="1" as="geometry">
            <mxPoint x="60" y="240" as="sourcePoint" />
            <mxPoint x="120" y="240" as="targetPoint" />
          </mxGeometry>
        </mxCell>
        <mxCell id="1xQ1ox92cC6e60sL-DOJ-12" value="" style="endArrow=classic;html=1;rounded=0;entryX=1;entryY=0.5;entryDx=0;entryDy=0;" parent="1" edge="1" target="1xQ1ox92cC6e60sL-DOJ-18">
          <mxGeometry width="50" height="50" relative="1" as="geometry">
            <mxPoint x="370" y="20" as="sourcePoint" />
            <mxPoint x="640" y="160" as="targetPoint" />
          </mxGeometry>
        </mxCell>
        <mxCell id="1xQ1ox92cC6e60sL-DOJ-15" value="Generate audit checklist, send it to technician" style="rounded=1;whiteSpace=wrap;html=1;" parent="1" vertex="1">
          <mxGeometry x="246" y="450" width="117" height="60" as="geometry" />
        </mxCell>
        <mxCell id="1xQ1ox92cC6e60sL-DOJ-18" value="Updating Calendar" style="rounded=1;whiteSpace=wrap;html=1;" parent="1" vertex="1">
          <mxGeometry x="157" y="-10" width="117" height="60" as="geometry" />
        </mxCell>
        <mxCell id="1xQ1ox92cC6e60sL-DOJ-26" value="" style="endArrow=classic;html=1;rounded=0;exitX=0.216;exitY=-0.021;exitDx=0;exitDy=0;exitPerimeter=0;entryX=-0.028;entryY=0.679;entryDx=0;entryDy=0;entryPerimeter=0;" parent="1" edge="1" target="1xQ1ox92cC6e60sL-DOJ-18" source="1xQ1ox92cC6e60sL-DOJ-41">
          <mxGeometry width="50" height="50" relative="1" as="geometry">
            <mxPoint x="240" y="201" as="sourcePoint" />
            <mxPoint x="210" y="150" as="targetPoint" />
            <Array as="points">
              <mxPoint x="155" y="130" />
            </Array>
          </mxGeometry>
        </mxCell>
        <mxCell id="1xQ1ox92cC6e60sL-DOJ-27" value="" style="endArrow=classic;html=1;rounded=0;exitX=0.491;exitY=-0.064;exitDx=0;exitDy=0;exitPerimeter=0;entryX=0.47;entryY=1.036;entryDx=0;entryDy=0;entryPerimeter=0;" parent="1" target="1xQ1ox92cC6e60sL-DOJ-41" edge="1" source="8BsJafBZphF7dqviJZzx-17">
          <mxGeometry width="50" height="50" relative="1" as="geometry">
            <mxPoint x="690" y="360" as="sourcePoint" />
            <mxPoint x="1100.72" y="239.5" as="targetPoint" />
            <Array as="points">
              <mxPoint x="564" y="430" />
              <mxPoint x="185" y="430" />
            </Array>
          </mxGeometry>
        </mxCell>
        <mxCell id="1xQ1ox92cC6e60sL-DOJ-28" value="" style="ellipse;whiteSpace=wrap;html=1;aspect=fixed;fillColor=#0d0d0d;" parent="1" vertex="1">
          <mxGeometry x="507" y="300" width="37" height="40" as="geometry" />
        </mxCell>
        <mxCell id="1xQ1ox92cC6e60sL-DOJ-29" value="Final &lt;br&gt;state" style="shape=note;whiteSpace=wrap;html=1;backgroundOutline=1;darkOpacity=0.05;" parent="1" vertex="1">
          <mxGeometry x="640" y="290" width="87" height="60" as="geometry" />
        </mxCell>
        <mxCell id="1xQ1ox92cC6e60sL-DOJ-30" value="" style="endArrow=none;dashed=1;html=1;rounded=0;entryX=1;entryY=0.5;entryDx=0;entryDy=0;strokeColor=#000000;exitX=0;exitY=0.5;exitDx=0;exitDy=0;exitPerimeter=0;" parent="1" target="1xQ1ox92cC6e60sL-DOJ-28" edge="1" source="1xQ1ox92cC6e60sL-DOJ-29">
          <mxGeometry width="50" height="50" relative="1" as="geometry">
            <mxPoint x="1130" y="340" as="sourcePoint" />
            <mxPoint x="1170" y="290" as="targetPoint" />
          </mxGeometry>
        </mxCell>
        <mxCell id="1xQ1ox92cC6e60sL-DOJ-31" value="Available time selected" style="text;html=1;strokeColor=none;fillColor=none;align=center;verticalAlign=middle;whiteSpace=wrap;rounded=0;" parent="1" vertex="1">
          <mxGeometry x="300" y="-20" width="57" height="30" as="geometry" />
        </mxCell>
        <mxCell id="1xQ1ox92cC6e60sL-DOJ-41" value="Calendar display" style="rounded=1;whiteSpace=wrap;html=1;" parent="1" vertex="1">
          <mxGeometry x="130" y="220" width="117" height="60" as="geometry" />
        </mxCell>
        <mxCell id="8BsJafBZphF7dqviJZzx-1" value="Calendar button pressed" style="text;html=1;strokeColor=none;fillColor=none;align=center;verticalAlign=middle;whiteSpace=wrap;rounded=0;" vertex="1" parent="1">
          <mxGeometry x="50" y="190" width="71.5" height="45" as="geometry" />
        </mxCell>
        <mxCell id="8BsJafBZphF7dqviJZzx-2" value="Technician Availability Received" style="text;whiteSpace=wrap;html=1;" vertex="1" parent="1">
          <mxGeometry x="87" y="100" width="70" height="40" as="geometry" />
        </mxCell>
        <mxCell id="8BsJafBZphF7dqviJZzx-3" value="" style="endArrow=classic;html=1;rounded=0;exitX=0.313;exitY=1.06;exitDx=0;exitDy=0;exitPerimeter=0;entryX=0.553;entryY=-0.031;entryDx=0;entryDy=0;entryPerimeter=0;" edge="1" parent="1" source="1xQ1ox92cC6e60sL-DOJ-18" target="1xQ1ox92cC6e60sL-DOJ-41">
          <mxGeometry width="50" height="50" relative="1" as="geometry">
            <mxPoint x="370" y="235" as="sourcePoint" />
            <mxPoint x="425" y="166" as="targetPoint" />
            <Array as="points">
              <mxPoint x="195" y="160" />
            </Array>
          </mxGeometry>
        </mxCell>
        <mxCell id="8BsJafBZphF7dqviJZzx-5" value="Calendar updated" style="text;whiteSpace=wrap;html=1;" vertex="1" parent="1">
          <mxGeometry x="197" y="90" width="70" height="40" as="geometry" />
        </mxCell>
        <mxCell id="8BsJafBZphF7dqviJZzx-6" value="" style="endArrow=classic;html=1;rounded=0;exitX=0.832;exitY=-0.05;exitDx=0;exitDy=0;exitPerimeter=0;entryX=0.157;entryY=1.06;entryDx=0;entryDy=0;entryPerimeter=0;" edge="1" parent="1" source="1xQ1ox92cC6e60sL-DOJ-41" target="8BsJafBZphF7dqviJZzx-8">
          <mxGeometry width="50" height="50" relative="1" as="geometry">
            <mxPoint x="247" y="269.43" as="sourcePoint" />
            <mxPoint x="390" y="270" as="targetPoint" />
            <Array as="points">
              <mxPoint x="230" y="160" />
              <mxPoint x="392" y="160" />
            </Array>
          </mxGeometry>
        </mxCell>
        <mxCell id="8BsJafBZphF7dqviJZzx-7" value="Schedule appointment button pressed" style="text;whiteSpace=wrap;html=1;" vertex="1" parent="1">
          <mxGeometry x="246" y="160" width="124" height="40" as="geometry" />
        </mxCell>
        <mxCell id="8BsJafBZphF7dqviJZzx-8" value="Display available times" style="rounded=1;whiteSpace=wrap;html=1;" vertex="1" parent="1">
          <mxGeometry x="373.5" y="-10" width="117" height="60" as="geometry" />
        </mxCell>
        <mxCell id="8BsJafBZphF7dqviJZzx-9" value="Reschedule appointment button pressed" style="text;whiteSpace=wrap;html=1;" vertex="1" parent="1">
          <mxGeometry x="274" y="230" width="136" height="40" as="geometry" />
        </mxCell>
        <mxCell id="8BsJafBZphF7dqviJZzx-10" value="" style="endArrow=classic;html=1;rounded=0;exitX=0.993;exitY=0.169;exitDx=0;exitDy=0;exitPerimeter=0;entryX=0.557;entryY=1.06;entryDx=0;entryDy=0;entryPerimeter=0;" edge="1" parent="1" source="1xQ1ox92cC6e60sL-DOJ-41" target="8BsJafBZphF7dqviJZzx-8">
          <mxGeometry width="50" height="50" relative="1" as="geometry">
            <mxPoint x="220" y="340" as="sourcePoint" />
            <mxPoint x="470" y="290" as="targetPoint" />
            <Array as="points">
              <mxPoint x="440" y="230" />
            </Array>
          </mxGeometry>
        </mxCell>
        <mxCell id="8BsJafBZphF7dqviJZzx-12" value="" style="endArrow=classic;html=1;rounded=0;exitX=0.319;exitY=1.045;exitDx=0;exitDy=0;exitPerimeter=0;" edge="1" parent="1" source="1xQ1ox92cC6e60sL-DOJ-41">
          <mxGeometry width="50" height="50" relative="1" as="geometry">
            <mxPoint x="103" y="470" as="sourcePoint" />
            <mxPoint x="246" y="470.57" as="targetPoint" />
            <Array as="points">
              <mxPoint x="170" y="471" />
            </Array>
          </mxGeometry>
        </mxCell>
        <mxCell id="8BsJafBZphF7dqviJZzx-13" value="scheduled appointment time is within 2 days" style="text;whiteSpace=wrap;html=1;" vertex="1" parent="1">
          <mxGeometry x="130" y="470" width="103" height="40" as="geometry" />
        </mxCell>
        <mxCell id="8BsJafBZphF7dqviJZzx-15" value="" style="endArrow=classic;html=1;rounded=0;" edge="1" parent="1">
          <mxGeometry width="50" height="50" relative="1" as="geometry">
            <mxPoint x="364" y="470" as="sourcePoint" />
            <mxPoint x="507" y="470.57" as="targetPoint" />
          </mxGeometry>
        </mxCell>
        <mxCell id="8BsJafBZphF7dqviJZzx-16" value="completed audit checklist received from technician" style="text;whiteSpace=wrap;html=1;" vertex="1" parent="1">
          <mxGeometry x="373.5" y="470" width="103" height="40" as="geometry" />
        </mxCell>
        <mxCell id="8BsJafBZphF7dqviJZzx-17" value="Send final audit report to homeowner" style="rounded=1;whiteSpace=wrap;html=1;" vertex="1" parent="1">
          <mxGeometry x="507" y="450" width="117" height="60" as="geometry" />
        </mxCell>
        <mxCell id="8BsJafBZphF7dqviJZzx-19" value="report sent" style="text;whiteSpace=wrap;html=1;" vertex="1" parent="1">
          <mxGeometry x="507" y="400" width="68" height="20" as="geometry" />
        </mxCell>
        <mxCell id="8BsJafBZphF7dqviJZzx-23" value="" style="endArrow=classic;html=1;rounded=0;entryX=0;entryY=0.5;entryDx=0;entryDy=0;exitX=0.75;exitY=1;exitDx=0;exitDy=0;" edge="1" parent="1" source="1xQ1ox92cC6e60sL-DOJ-41" target="1xQ1ox92cC6e60sL-DOJ-28">
          <mxGeometry width="50" height="50" relative="1" as="geometry">
            <mxPoint x="376.5" y="330" as="sourcePoint" />
            <mxPoint x="280.5" y="330" as="targetPoint" />
            <Array as="points">
              <mxPoint x="218" y="320" />
            </Array>
          </mxGeometry>
        </mxCell>
        <mxCell id="8BsJafBZphF7dqviJZzx-24" value="exit button pressed" style="text;whiteSpace=wrap;html=1;" vertex="1" parent="1">
          <mxGeometry x="310" y="320" width="120" height="40" as="geometry" />
        </mxCell>
      </root>
    </mxGraphModel>
  </diagram>
</mxfile>
